<?xml version="1.0" encoding="UTF-8"?>
<svg width="129px" height="48px" viewBox="0 0 129 48" version="1.1" xmlns="http://www.w3.org/2000/svg" xmlns:xlink="http://www.w3.org/1999/xlink">
    <title>Artboard</title>
    <g id="Artboard" stroke="none" stroke-width="1" fill="none" fill-rule="evenodd">
        <path d="M104.344234,16.6821714 C106.465643,16.6821714 108.229196,17.3708857 109.606804,18.7206714 C111.011856,20.0706714 111.700553,21.8061714 111.700553,23.9548143 C111.700553,26.1036714 111.011856,27.8668143 109.606804,29.2166 C108.229196,30.5666 106.465643,31.2553143 104.344234,31.2553143 C102.222611,31.2553143 100.486932,30.5666 99.1093241,29.2166 C97.7315018,27.8668143 97.0428051,26.1036714 97.0428051,23.9548143 C97.0428051,21.8061714 97.7315018,20.0706714 99.1093241,18.7206714 C100.486932,17.3708857 102.222611,16.6821714 104.344234,16.6821714 Z M117.929356,12.7142643 L117.901911,16.9849786 L122,16.9849786 L122,20.2356929 L117.874466,20.2356929 L117.819148,25.8831929 C117.819148,27.3433357 118.287642,27.8942643 119.637804,27.8942643 C121.271851,27.8942643 121.785157,27.5578357 121.785157,27.5578357 L121.785157,27.5578357 L121.785157,30.7114786 C121.785157,30.7114786 120.839808,31.1451929 118.838899,31.1451929 C115.725184,31.1451929 114.209922,29.8228357 114.237367,26.7373357 L114.237367,26.7373357 L114.292257,20.2356929 L111.584641,20.2356929 L111.584641,16.9849786 L114.292257,16.9849786 L114.320131,13.5962643 L117.929356,12.7142643 Z M104.371679,19.9328857 C103.297038,19.9328857 102.443028,20.3186 101.754117,21.0898143 C101.06542,21.8336 100.734794,22.7981 100.734794,23.9548143 C100.734794,25.1121714 101.06542,26.0762429 101.754117,26.8474571 C102.443028,27.5914571 103.297038,27.9769571 104.371679,27.9769571 C106.493302,27.9769571 107.981119,26.2691 107.981119,23.9548143 C107.981119,21.6133143 106.548407,19.9328857 104.371679,19.9328857 Z M88.9436285,27.4259857 L85.6924738,27.4259857 L85.6924738,22.8803429 L88.9436285,22.8803429 C90.596758,22.8803429 91.5337457,23.7066286 91.5337457,25.1393429 C91.5337457,26.5718429 90.569313,27.4259857 88.9436285,27.4259857 L88.9436285,27.4259857 Z M85.6924738,15.1941286 L88.0619594,15.1941286 C89.6050947,15.1941286 90.5144231,15.9929857 90.5144231,17.4533429 C90.5144231,18.7480571 89.6050947,19.5745571 88.0896188,19.5745571 L85.6924738,19.5745571 L85.6924738,15.1941286 Z M92.7183813,20.9243429 C93.848127,20.0427714 94.3991702,18.8031286 94.3991702,17.1777714 C94.3991702,13.7616286 91.9469209,11.6678429 88.0619594,11.6678429 L81.917721,11.6678429 L81.917721,30.9522714 L88.9436285,30.9522714 C90.9275983,30.9522714 92.4981785,30.4287714 93.6828141,29.4094143 C94.8676641,28.3624143 95.4738115,26.9849857 95.4738115,25.2771286 C95.4738115,23.2109857 94.3991702,21.6681286 92.7183813,20.9243429 L92.7183813,20.9243429 Z M70.1404921,22.5774286 C70.33325,20.8417143 71.5181,19.6571429 73.2816525,19.6571429 C75.0449907,19.6571429 76.2021813,20.8142857 76.2296262,22.5774286 L70.1404921,22.5774286 Z M73.3642018,16.6817857 C71.2976828,16.6817857 69.6445533,17.3705 68.3494947,18.7479286 C67.054436,20.0979286 66.4206292,21.8610714 66.4206292,23.9825 C66.4206292,26.1587857 67.054436,27.9219286 68.3218353,29.2719286 C69.6171083,30.5940714 71.2976828,31.2551429 73.3642018,31.2551429 C76.6981201,31.2551429 78.8746334,29.5749286 79.7565169,26.5719286 L76.284945,26.5719286 C75.8715554,27.6463571 74.934782,28.1972857 73.474196,28.1972857 C71.5181,28.1972857 70.2230414,26.93 70.1130472,25.0567143 L79.8392806,25.0567143 L79.8392806,23.9546429 C79.8392806,19.1889286 77.2217183,16.6817857 73.3642018,16.6817857 L73.3642018,16.6817857 Z M58.2630463,27.4259857 L55.0116773,27.4259857 L55.0116773,22.8803429 L58.2630463,22.8803429 C59.9161758,22.8803429 60.8529492,23.7066286 60.8529492,25.1393429 C60.8529492,26.5718429 59.8887308,27.4259857 58.2630463,27.4259857 L58.2630463,27.4259857 Z M55.0116773,15.1941286 L57.3813773,15.1941286 C58.9242981,15.1941286 59.8336265,15.9929857 59.8336265,17.4533429 C59.8336265,18.7480571 58.9242981,19.5745571 57.4088222,19.5745571 L55.0116773,19.5745571 L55.0116773,15.1941286 Z M62.0377991,20.9243429 C63.1675448,20.0427714 63.718588,18.8031286 63.718588,17.1777714 C63.718588,13.7616286 61.2663387,11.6678429 57.3813773,11.6678429 L51.2369244,11.6678429 L51.2369244,30.9522714 L58.2630463,30.9522714 C60.2468017,30.9522714 61.8173819,30.4287714 63.0022319,29.4094143 C64.1868675,28.3624143 64.7930149,26.9849857 64.7930149,25.2771286 C64.7930149,23.2109857 63.718588,21.6681286 62.0377991,20.9243429 L62.0377991,20.9243429 Z M23.9053338,20.3214286 C23.0172324,20.3214286 22.2972312,19.6018571 22.2972312,18.7142857 C22.2972312,17.8267143 23.0172324,17.1071429 23.9053338,17.1071429 C24.7934353,17.1071429 25.5134364,17.8267143 25.5134364,18.7142857 C25.5134364,19.6018571 24.7934353,20.3214286 23.9053338,20.3214286 M19.081026,26.4285714 C17.6253716,26.4285714 16.310158,25.8204286 15.3731703,24.8462857 L16.4581035,23.4909286 C17.0878365,24.2379286 18.0295413,24.7142857 19.081026,24.7142857 C20.4356917,24.7142857 21.6059615,23.9233571 22.1632227,22.7812143 L23.5088829,23.9019286 C22.6115617,25.4130714 20.9631493,26.4285714 19.081026,26.4285714 M12.6486156,18.7142857 C12.6486156,17.8267143 13.3686168,17.1071429 14.2567182,17.1071429 C15.1448197,17.1071429 15.8648208,17.8267143 15.8648208,18.7142857 C15.8648208,19.6018571 15.1448197,20.3214286 14.2567182,20.3214286 C13.3686168,20.3214286 12.6486156,19.6018571 12.6486156,18.7142857 M34.5093768,16.6715 L32.8071466,17.4697143 C32.5802969,15.5087857 32.1150192,13.4115714 31.1645234,12.4543571 C29.9631635,11.2445 24.9403087,10.6565 20.1530944,10.5802143 L20.1530944,8.24171429 C21.4014109,7.80007143 22.2972312,6.61314286 22.2972312,5.21428571 C22.2972312,3.43914286 20.857229,2 19.081026,2 C17.3048231,2 15.8648208,3.43914286 15.8648208,5.21428571 C15.8648208,6.61314286 16.7606412,7.80007143 18.0089576,8.24171429 L18.0089576,10.5802143 C13.2217434,10.6565 8.19888851,11.2445 6.99752866,12.4543571 C6.1439478,13.3140714 5.68124307,15.0939286 5.43166555,16.8684286 L3.87180602,16.0170714 C3.32119169,17.5318571 3,19.3408571 3,21.2857143 C3,22.9787857 3.24335953,24.569 3.6691851,25.952 L5.36455407,25.1829286 C5.59461995,27.1202857 6.06032646,29.1733571 6.99752866,30.1172857 C8.28915667,31.418 13.9970633,32 19.081026,32 C24.1649888,32 29.8728954,31.418 31.1645234,30.1170714 C32.1017256,29.1731429 32.5674321,27.1202857 32.797498,25.1829286 L34.492867,25.952 C34.9186925,24.569 35.1620521,22.9787857 35.1620521,21.2857143 C35.1620521,19.6140714 34.9253394,18.0420714 34.5093768,16.6715" id="Combined-Shape" fill="#0082E5"></path>
    </g>
</svg>